<svg xmlns="http://www.w3.org/2000/svg" viewBox="0 0 310 120">
  <defs>
    <style>
      .cls-1 {
        fill: #fff;
      }

      .cls-2 {
        fill: #50ae2f;
      }

      .cls-3 {
        fill: #b1cc3a;
      }

      .cls-4 {
        fill: #aeb5be;
      }
    </style>
  </defs>
  <title>banner-logo</title>
  <filter id="dropshadow" height="130%">
    <feGaussianBlur in="SourceAlpha" stdDeviation="3"/> <!-- stdDeviation is how much to blur -->
    <feOffset dx="2" dy="2" result="offsetblur"/> <!-- how much to offset -->
    <feComponentTransfer>
      <feFuncA type="linear" slope="0.2"/> <!-- slope is the opacity of the shadow -->
    </feComponentTransfer>
    <feMerge>
      <feMergeNode/> <!-- this contains the offset blurred image -->
      <feMergeNode in="SourceGraphic"/> <!-- this contains the element that the filter is applied to -->
    </feMerge>
  </filter>

  <g id="Calque_2" data-name="Calque 2">
    <g id="shadow">
      <path class="cls-1" d="M52.52,105A52.52,52.52,0,1,0,0,52.52,52.53,52.53,0,0,0,52.52,105" style="filter:url(#dropshadow)"/>
    </g>
    <g id="green-circle">
      <path class="cls-2" d="M4.36,52.52A48.16,48.16,0,1,0,52.52,4.36,48.16,48.16,0,0,0,4.36,52.52"/>
    </g>
    <g id="swoosh">
      <path class="cls-1" d="M84.49,62.06s-43.33-1.47-70.3,19.62a48.31,48.31,0,0,0,24.58,17C38.11,97.05,26.24,65.69,84.49,62.06Z"/>
    </g>
    <g id="name">
      <polygon class="cls-1" points="16.8 47.52 16.8 58.8 14.21 58.8 14.21 47.52 10.77 47.52 10.77 45.29 20.24 45.29 20.24 47.52 16.8 47.52"/>
      <path class="cls-1" d="M22.73,48.62v1.06a2.37,2.37,0,0,1,1-1,3,3,0,0,1,1.41-.31,4.18,4.18,0,0,1,.82.07v2.28a4,4,0,0,0-1.22-.22,1.87,1.87,0,0,0-1.41.56,2.19,2.19,0,0,0-.54,1.59V58.8H20.36V48.62Z"/>
      <path class="cls-1" d="M39.35,48.62v.92a2.86,2.86,0,0,1,1.08-.77,3.39,3.39,0,0,1,1.32-.27,3.06,3.06,0,0,1,2.43,1A3.92,3.92,0,0,1,45,52.17V58.8H42.62V52.46a1.91,1.91,0,0,0-.43-1.33A1.49,1.49,0,0,0,41,50.66a1.55,1.55,0,0,0-1.17.47,1.83,1.83,0,0,0-.45,1.33V58.8H37V48.62Z"/>
      <path class="cls-1" d="M46.71,55.79v-.08H49v0a1,1,0,0,0,.46.89,2.05,2.05,0,0,0,1.2.32,2.32,2.32,0,0,0,1.25-.28.94.94,0,0,0,.45-.85A.86.86,0,0,0,52,55.1a2.5,2.5,0,0,0-1.11-.37l-1.08-.18a4.2,4.2,0,0,1-2.25-.94,2.51,2.51,0,0,1-.73-2,2.78,2.78,0,0,1,1.07-2.3,4.23,4.23,0,0,1,2.73-.86,4.87,4.87,0,0,1,2,.39,3.13,3.13,0,0,1,1.35,1,2.57,2.57,0,0,1,.48,1.52v.12H52.23v-.06a.94.94,0,0,0-.42-.82,2,2,0,0,0-1.17-.3,1.86,1.86,0,0,0-1.14.3.91.91,0,0,0-.39.78.86.86,0,0,0,.31.71,2,2,0,0,0,1,.35l1.19.17a4.14,4.14,0,0,1,2.29.94,2.63,2.63,0,0,1,.76,2,2.83,2.83,0,0,1-1.13,2.42,4.79,4.79,0,0,1-3,.85,4.33,4.33,0,0,1-2.8-.85,2.79,2.79,0,0,1-1-2.28"/>
      <path class="cls-1" d="M66.14,55.71V45.29h2.43V55.55a1.36,1.36,0,0,0,.23.89.89.89,0,0,0,.73.27h.82V58.8H69.24A3.16,3.16,0,0,1,67,58a3.08,3.08,0,0,1-.81-2.29"/>
      <path class="cls-1" d="M71.76,55.71V45.29h2.43V55.55a1.36,1.36,0,0,0,.22.89.92.92,0,0,0,.74.27H76V58.8H74.85a3.12,3.12,0,0,1-2.28-.8,3.08,3.08,0,0,1-.81-2.29"/>
      <path class="cls-1" d="M79.61,54.71a2.2,2.2,0,0,0,.51,1.63,2,2,0,0,0,1.45.48,1.87,1.87,0,0,0,1.13-.3,1.05,1.05,0,0,0,.45-.85l0-.06h2.31v.1A2.89,2.89,0,0,1,84.41,58a4.5,4.5,0,0,1-2.94.88,4.24,4.24,0,0,1-3.11-1.13,4.64,4.64,0,0,1-1.16-3.47V53.09a4.72,4.72,0,0,1,1.12-3.44,4.1,4.1,0,0,1,3.07-1.15,4,4,0,0,1,3,1.16,4.73,4.73,0,0,1,1.13,3.43v1.35h-6Zm0-2v.06h3.52v-.25c0-1.29-.58-1.94-1.74-1.94a1.72,1.72,0,0,0-1.32.49,2.33,2.33,0,0,0-.46,1.64"/>
      <path class="cls-1" d="M91,60.75l.11-.15a3.45,3.45,0,0,0,.58-1.3l3.73-10.68H92.92l-2,6.4-2-6.4H86.32l3.34,9.59c.12,1.13-.18,3.25-3.84,3.93,0,0,2.81.49,4.58-.82h0a2.32,2.32,0,0,0,.43-.4Z"/>
      <path class="cls-1" d="M63,49.41a4.4,4.4,0,0,0-3-.91,4.15,4.15,0,0,0-2.74.84,2.76,2.76,0,0,0-1,2.26v.08h2.25v-.06a1.13,1.13,0,0,1,.4-.91A1.62,1.62,0,0,1,60,50.36,1.44,1.44,0,0,1,61.62,52v.8H59.47a3.82,3.82,0,0,0-2.57.8A2.69,2.69,0,0,0,56,55.75a3.09,3.09,0,0,0,.87,2.33,3.31,3.31,0,0,0,2.42.84,3.54,3.54,0,0,0,1.36-.23,3.44,3.44,0,0,0,1-.77v.88H64V52.11A3.42,3.42,0,0,0,63,49.41Zm-1.37,5.77a1.87,1.87,0,0,1-.42,1.34,1.82,1.82,0,0,1-1.38.44c-1,0-1.49-.42-1.49-1.27s.51-1.23,1.53-1.23h1.76Z"/>
      <path class="cls-1" d="M33.83,49.41a4.44,4.44,0,0,0-3-.91,4.17,4.17,0,0,0-2.74.84,2.76,2.76,0,0,0-1,2.26v.08h2.25v-.06a1.16,1.16,0,0,1,.4-.91,1.62,1.62,0,0,1,1.09-.35A1.44,1.44,0,0,1,32.46,52v.8H30.3a3.79,3.79,0,0,0-2.56.8,2.69,2.69,0,0,0-.92,2.16,3.13,3.13,0,0,0,.86,2.33,3.32,3.32,0,0,0,2.43.84,3.54,3.54,0,0,0,1.36-.23,3.44,3.44,0,0,0,1.05-.77v.88h2.35V52.11A3.42,3.42,0,0,0,33.83,49.41Zm-1.37,5.77A1.87,1.87,0,0,1,32,56.52a1.83,1.83,0,0,1-1.38.44c-1,0-1.49-.42-1.49-1.27s.51-1.23,1.52-1.23h1.77Z"/>
    </g>
    <g id="valenciennes">
      <g>
        <path class="cls-3" d="M114.31,112.37l1.35,4.76,1.36-4.76h1.36l-2.2,6.88h-1.05l-2.19-6.88Z"/>
        <path class="cls-3" d="M119.72,117.91l-.42,1.34h-1.38l2.44-6.88h1.07l2.45,6.88H122.5l-.42-1.34Zm1.17-3.72-.82,2.64h1.66Z"/>
        <path class="cls-3" d="M125.81,112.37v5.74h3v1.14h-4.31v-6.88Z"/>
        <path class="cls-3" d="M131,115.21h2.62v1.14H131v1.76H134v1.14h-4.36v-6.88H134v1.14H131Z"/>
        <path class="cls-3" d="M140.09,119.25h-1.31l-2.53-4.3v4.3H135v-6.88h1.3l2.53,4.31v-4.31h1.31Z"/>
        <path class="cls-3" d="M141.18,115c0-1.82.84-2.74,2.52-2.74a2.57,2.57,0,0,1,1.79.6,2.13,2.13,0,0,1,.67,1.68v.07h-1.31v-.05a1.06,1.06,0,0,0-1.16-1.15,1,1,0,0,0-.91.39,2.18,2.18,0,0,0-.29,1.27v1.49a2,2,0,0,0,.29,1.21,1.09,1.09,0,0,0,.93.38,1.14,1.14,0,0,0,.85-.3,1.13,1.13,0,0,0,.29-.81V117h1.29V117a2.19,2.19,0,0,1-.66,1.7,2.62,2.62,0,0,1-1.8.59c-1.67,0-2.5-.92-2.5-2.74Z"/>
        <path class="cls-3" d="M148.51,112.37v6.88H147.2v-6.88Z"/>
        <path class="cls-3" d="M151.05,115.21h2.61v1.14h-2.61v1.76h3.06v1.14h-4.37v-6.88h4.37v1.14h-3.06Z"/>
        <path class="cls-3" d="M160.18,119.25h-1.3l-2.53-4.3v4.3H155v-6.88h1.31l2.53,4.31v-4.31h1.3Z"/>
        <path class="cls-3" d="M166.5,119.25h-1.3l-2.54-4.3v4.3h-1.3v-6.88h1.3l2.54,4.31v-4.31h1.3Z"/>
        <path class="cls-3" d="M169,115.21h2.61v1.14H169v1.76H172v1.14h-4.36v-6.88H172v1.14H169Z"/>
        <path class="cls-3" d="M172.64,117.16h1.23a1.18,1.18,0,0,0,.37.8,1.39,1.39,0,0,0,.87.23c.74,0,1.1-.3,1.1-.9a.83.83,0,0,0-.22-.63,1.23,1.23,0,0,0-.69-.29l-.65-.11c-1.24-.21-1.86-.84-1.86-1.91a1.93,1.93,0,0,1,.63-1.52,2.45,2.45,0,0,1,1.68-.56,2.31,2.31,0,0,1,1.61.54,2.2,2.2,0,0,1,.67,1.52h-1.26a1,1,0,0,0-.28-.73,1.39,1.39,0,0,0-1.53,0,.84.84,0,0,0-.26.65.72.72,0,0,0,.23.56,1.42,1.42,0,0,0,.72.3l.73.13a1.85,1.85,0,0,1,1.77,1.94,1.94,1.94,0,0,1-.66,1.58,2.75,2.75,0,0,1-1.79.55,2.52,2.52,0,0,1-1.73-.56A2.2,2.2,0,0,1,172.64,117.16Z"/>
      </g>
    </g>
    <g id="baseline-en">
      <g>
        <path class="cls-4" d="M116.34,93.23A4.31,4.31,0,0,1,113,92l1.17-1.17a3,3,0,0,0,2.23.78c1.07,0,1.64-.4,1.64-1.14a1,1,0,0,0-.28-.78,1.43,1.43,0,0,0-.82-.33l-1.12-.15a3.16,3.16,0,0,1-1.79-.77,2.42,2.42,0,0,1-.67-1.82c0-1.65,1.22-2.81,3.23-2.81a4,4,0,0,1,3,1.08L118.39,86a2.56,2.56,0,0,0-1.9-.64c-1,0-1.43.54-1.43,1.18a.88.88,0,0,0,.28.66,1.56,1.56,0,0,0,.86.36l1.09.16a3.13,3.13,0,0,1,1.77.71,2.62,2.62,0,0,1,.71,2C119.77,92.22,118.28,93.23,116.34,93.23Z"/>
        <path class="cls-4" d="M124.92,93.16v-.63a2.31,2.31,0,0,1-1.69.7,2.23,2.23,0,0,1-1.6-.59,2.52,2.52,0,0,1-.69-1.93V86.38h1.69v4.1a1.13,1.13,0,1,0,2.25,0v-4.1h1.69v6.78Z"/>
        <path class="cls-4" d="M130.37,93.23a3.68,3.68,0,0,1-2.89-1l1.1-1.11a2.47,2.47,0,0,0,1.81.64c.59,0,1.2-.19,1.2-.7,0-.34-.18-.57-.72-.63l-1.06-.1c-1.23-.12-2-.65-2-1.9s1.24-2.16,2.61-2.16a3.6,3.6,0,0,1,2.59.8l-1,1.05a2.36,2.36,0,0,0-1.57-.45c-.68,0-1,.31-1,.65s.1.53.7.58l1.06.11c1.34.13,2,.84,2,2C133.24,92.52,132,93.23,130.37,93.23Z"/>
        <path class="cls-4" d="M136.32,93.16a1.84,1.84,0,0,1-2-1.94V87.87h-.72V86.58h.72v-2h1.69v2h1.19v1.29h-1.19v3.25a.53.53,0,0,0,.58.61h.61v1.43Z"/>
        <path class="cls-4" d="M141.88,93.16v-.59a2,2,0,0,1-1.66.65,2.28,2.28,0,0,1-1.73-.6,2.13,2.13,0,0,1-.56-1.52c0-1.08.74-2,2.31-2h1.6V88.8c0-.74-.36-1.06-1.26-1.06a1.45,1.45,0,0,0-1.3.55l-1.08-1.05a2.84,2.84,0,0,1,2.45-.94c1.89,0,2.88.81,2.88,2.4v4.46Zm0-2.86H140.5c-.61,0-.95.28-.95.76s.32.78,1,.78a1.33,1.33,0,0,0,1.06-.32,1.08,1.08,0,0,0,.25-.86Z"/>
        <path class="cls-4" d="M145,85.23V83.85h1.73v1.38Zm0,7.93V86.38h1.69v6.78Z"/>
        <path class="cls-4" d="M152.22,93.16v-4.1a1.13,1.13,0,1,0-2.25,0v4.1h-1.69V86.38h1.65V87a2.3,2.3,0,0,1,1.69-.71,2.25,2.25,0,0,1,1.6.6,2.55,2.55,0,0,1,.69,1.93v4.33Z"/>
        <path class="cls-4" d="M158.87,93.16v-.59a2,2,0,0,1-1.66.65,2.28,2.28,0,0,1-1.73-.6,2.13,2.13,0,0,1-.56-1.52c0-1.08.74-2,2.31-2h1.6V88.8c0-.74-.36-1.06-1.26-1.06a1.45,1.45,0,0,0-1.3.55l-1.08-1.05a2.87,2.87,0,0,1,2.45-.94c1.89,0,2.88.81,2.88,2.4v4.46Zm0-2.86h-1.34c-.61,0-.94.28-.94.76s.31.78,1,.78a1.37,1.37,0,0,0,1.07-.32,1.12,1.12,0,0,0,.24-.86Z"/>
        <path class="cls-4" d="M167,92.62a2.35,2.35,0,0,1-1.65.61,2,2,0,0,1-1.69-.71v.64H162V83.9h1.69V87a2,2,0,0,1,1.64-.68,2.36,2.36,0,0,1,1.65.62,4,4,0,0,1,.69,2.84A4.06,4.06,0,0,1,167,92.62Zm-2.15-4.79c-1,0-1.14.83-1.14,1.93s.13,1.95,1.14,1.95,1.15-.84,1.15-1.95S165.87,87.83,164.85,87.83Z"/>
        <path class="cls-4" d="M170.88,93.16a1.84,1.84,0,0,1-2-1.94V83.9h1.69v7.22c0,.4.17.61.6.61h.65v1.43Z"/>
        <path class="cls-4" d="M173.87,90.3a1.4,1.4,0,0,0,1.48,1.5,1.88,1.88,0,0,0,1.54-.63l1,1a3.24,3.24,0,0,1-2.58,1.06c-1.6,0-3.13-.72-3.13-3.47,0-2.21,1.19-3.46,2.95-3.46s3,1.38,3,3.24v.76Zm2.42-1.89a1.26,1.26,0,0,0-2.26,0,1.74,1.74,0,0,0-.16.73h2.58A2.11,2.11,0,0,0,176.29,88.41Z"/>
        <path class="cls-4" d="M185.51,93.16v-.59a2.06,2.06,0,0,1-1.67.65,2.31,2.31,0,0,1-1.73-.6,2.17,2.17,0,0,1-.56-1.52c0-1.08.75-2,2.32-2h1.6V88.8c0-.74-.37-1.06-1.26-1.06a1.45,1.45,0,0,0-1.3.55l-1.08-1.05a2.83,2.83,0,0,1,2.44-.94c1.9,0,2.89.81,2.89,2.4v4.46Zm0-2.86h-1.34c-.61,0-.95.28-.95.76s.31.78,1,.78a1.37,1.37,0,0,0,1.07-.32,1.12,1.12,0,0,0,.25-.86Z"/>
        <path class="cls-4" d="M192.59,93.16v-4.1a1.08,1.08,0,0,0-1.12-1.23,1.1,1.1,0,0,0-1.13,1.23v4.1h-1.69V86.38h1.65V87A2.34,2.34,0,0,1,192,86.3a2.21,2.21,0,0,1,1.6.6,2.52,2.52,0,0,1,.69,1.93v4.33Z"/>
        <path class="cls-4" d="M199.52,93.16v-.64a2,2,0,0,1-1.68.71,2.38,2.38,0,0,1-1.66-.61,4,4,0,0,1-.69-2.86,4,4,0,0,1,.69-2.84,2.36,2.36,0,0,1,1.65-.62,2,2,0,0,1,1.65.68V83.9h1.69v9.26Zm-1.2-5.33c-1,0-1.14.83-1.14,1.93s.13,1.95,1.14,1.95,1.16-.84,1.16-1.95S199.34,87.83,198.32,87.83Z"/>
        <path class="cls-4" d="M205.57,93.16V83.9h1.8v9.26Z"/>
        <path class="cls-4" d="M213,93.16v-4.1a1.12,1.12,0,1,0-2.24,0v4.1h-1.69V86.38h1.65V87a2.3,2.3,0,0,1,1.69-.71,2.25,2.25,0,0,1,1.6.6,2.55,2.55,0,0,1,.68,1.93v4.33Z"/>
        <path class="cls-4" d="M220.14,93.16v-4.1a1.13,1.13,0,1,0-2.25,0v4.1H216.2V86.38h1.65V87a2.32,2.32,0,0,1,1.69-.71,2.23,2.23,0,0,1,1.6.6,2.52,2.52,0,0,1,.69,1.93v4.33Z"/>
        <path class="cls-4" d="M228,92.4a3.07,3.07,0,0,1-4.2,0,4.93,4.93,0,0,1,0-5.26,3,3,0,0,1,4.2,0,4.88,4.88,0,0,1,0,5.26Zm-1.31-4.28a1.07,1.07,0,0,0-.79-.29,1,1,0,0,0-.78.29,3.66,3.66,0,0,0,0,3.29,1,1,0,0,0,.78.3,1,1,0,0,0,.79-.3,3.66,3.66,0,0,0,0-3.29Z"/>
        <path class="cls-4" d="M232.85,93.16h-1.32L229,86.38h1.78l1.38,4.19,1.36-4.19h1.79Z"/>
        <path class="cls-4" d="M239.35,93.16v-.59a2,2,0,0,1-1.66.65,2.28,2.28,0,0,1-1.73-.6,2.13,2.13,0,0,1-.56-1.52c0-1.08.74-2,2.31-2h1.6V88.8c0-.74-.36-1.06-1.26-1.06a1.45,1.45,0,0,0-1.3.55l-1.08-1.05a2.87,2.87,0,0,1,2.45-.94c1.89,0,2.88.81,2.88,2.4v4.46Zm0-2.86H238c-.61,0-.94.28-.94.76s.31.78,1,.78a1.37,1.37,0,0,0,1.07-.32,1.12,1.12,0,0,0,.24-.86Z"/>
        <path class="cls-4" d="M244.62,93.16a1.84,1.84,0,0,1-2-1.94V87.87h-.71V86.58h.71v-2h1.69v2h1.2v1.29h-1.2v3.25a.54.54,0,0,0,.59.61h.61v1.43Z"/>
        <path class="cls-4" d="M246.72,85.23V83.85h1.73v1.38Zm0,7.93V86.38h1.69v6.78Z"/>
        <path class="cls-4" d="M252.92,93.16H251.6l-2.5-6.78h1.78l1.38,4.19,1.37-4.19h1.78Z"/>
        <path class="cls-4" d="M257.28,90.3a1.39,1.39,0,0,0,1.48,1.5,1.85,1.85,0,0,0,1.53-.63l1,1a3.21,3.21,0,0,1-2.57,1.06c-1.6,0-3.14-.72-3.14-3.47,0-2.21,1.2-3.46,3-3.46s2.95,1.38,2.95,3.24v.76Zm2.42-1.89a1.27,1.27,0,0,0-2.27,0,1.9,1.9,0,0,0-.15.73h2.57A1.9,1.9,0,0,0,259.7,88.41Z"/>
        <path class="cls-4" d="M272.15,93.16v-5.4l-1.77,3.51h-1.22l-1.78-3.51v5.4h-1.81V83.9h1.78l2.42,5,2.41-5H274v9.26Z"/>
        <path class="cls-4" d="M280.34,92.4a2.82,2.82,0,0,1-2.11.83,2.78,2.78,0,0,1-2.09-.83,4.88,4.88,0,0,1,0-5.26,2.79,2.79,0,0,1,2.09-.84,2.82,2.82,0,0,1,2.11.84,4.88,4.88,0,0,1,0,5.26ZM279,88.12a1.11,1.11,0,0,0-.8-.29,1.07,1.07,0,0,0-.78.29,3.66,3.66,0,0,0,0,3.29,1,1,0,0,0,.78.3,1.07,1.07,0,0,0,.8-.3,3.66,3.66,0,0,0,0-3.29Z"/>
        <path class="cls-4" d="M287.37,92.62a2.34,2.34,0,0,1-1.65.61,2.06,2.06,0,0,1-1.69-.71v.64h-1.64V83.9h1.69V87a2,2,0,0,1,1.64-.68,2.34,2.34,0,0,1,1.65.62,4,4,0,0,1,.69,2.84A4,4,0,0,1,287.37,92.62Zm-2.14-4.79c-1,0-1.15.83-1.15,1.93s.13,1.95,1.15,1.95,1.14-.84,1.14-1.95S286.24,87.83,285.23,87.83Z"/>
        <path class="cls-4" d="M289.32,85.23V83.85h1.73v1.38Zm0,7.93V86.38H291v6.78Z"/>
        <path class="cls-4" d="M294.51,93.16a1.85,1.85,0,0,1-2-1.94V83.9h1.69v7.22c0,.4.17.61.6.61h.65v1.43Z"/>
        <path class="cls-4" d="M296.47,85.23V83.85h1.73v1.38Zm0,7.93V86.38h1.69v6.78Z"/>
        <path class="cls-4" d="M301.87,93.16a1.84,1.84,0,0,1-2-1.94V87.87h-.71V86.58h.71v-2h1.69v2h1.2v1.29h-1.2v3.25a.54.54,0,0,0,.59.61h.61v1.43Z"/>
        <path class="cls-4" d="M306.52,94.25a2.41,2.41,0,0,1-.51.87,1.94,1.94,0,0,1-1.45.52h-.66V94.12h.39a.73.73,0,0,0,.84-.61l.29-.84-2.32-6.29h1.78l1.41,4.19,1.35-4.19h1.78Z"/>
        <path class="cls-4" d="M117.13,107.16v-.59a2,2,0,0,1-1.66.65,2.28,2.28,0,0,1-1.73-.6,2.13,2.13,0,0,1-.56-1.52c0-1.08.74-2,2.31-2h1.6v-.34c0-.74-.36-1.06-1.26-1.06a1.45,1.45,0,0,0-1.3.55l-1.08-1.05a2.87,2.87,0,0,1,2.45-.94c1.89,0,2.88.81,2.88,2.4v4.46Zm0-2.86h-1.34c-.61,0-1,.28-1,.76s.32.78,1,.78a1.37,1.37,0,0,0,1.07-.32,1.12,1.12,0,0,0,.24-.86Z"/>
        <path class="cls-4" d="M124.22,107.16v-4.1a1.13,1.13,0,1,0-2.25,0v4.1h-1.69v-6.78h1.65V101a2.3,2.3,0,0,1,1.69-.71,2.23,2.23,0,0,1,1.6.6,2.55,2.55,0,0,1,.69,1.93v4.33Z"/>
        <path class="cls-4" d="M131.15,107.16v-.64a2,2,0,0,1-1.68.71,2.4,2.4,0,0,1-1.67-.61,4.06,4.06,0,0,1-.68-2.86,4,4,0,0,1,.68-2.84,2.37,2.37,0,0,1,1.66-.62,2.06,2.06,0,0,1,1.65.68V97.9h1.69v9.26Zm-1.2-5.33c-1,0-1.14.83-1.14,1.93s.13,1.95,1.14,1.95,1.16-.84,1.16-1.95S131,101.83,130,101.83Z"/>
        <path class="cls-4" d="M140.73,99.51v7.65h-1.81V99.51H136.5V97.9h6.64v1.61Z"/>
        <path class="cls-4" d="M147.33,102.23a1.13,1.13,0,0,0-2,.84v4.09h-1.69v-6.78h1.65V101a2.31,2.31,0,0,1,1.7-.73,2,2,0,0,1,1.6.64Z"/>
        <path class="cls-4" d="M152.58,107.16v-.59a2,2,0,0,1-1.66.65,2.28,2.28,0,0,1-1.73-.6,2.13,2.13,0,0,1-.56-1.52c0-1.08.74-2,2.31-2h1.6v-.34c0-.74-.36-1.06-1.26-1.06a1.45,1.45,0,0,0-1.3.55l-1.08-1.05a2.87,2.87,0,0,1,2.45-.94c1.89,0,2.88.81,2.88,2.4v4.46Zm0-2.86H151.2c-.61,0-.95.28-.95.76s.32.78,1,.78a1.37,1.37,0,0,0,1.07-.32,1.12,1.12,0,0,0,.24-.86Z"/>
        <path class="cls-4" d="M159.67,107.16v-4.1a1.13,1.13,0,1,0-2.25,0v4.1h-1.69v-6.78h1.65V101a2.3,2.3,0,0,1,1.69-.71,2.25,2.25,0,0,1,1.6.6,2.55,2.55,0,0,1,.69,1.93v4.33Z"/>
        <path class="cls-4" d="M165.07,107.23a3.67,3.67,0,0,1-2.88-1l1.1-1.11a2.47,2.47,0,0,0,1.81.64c.59,0,1.2-.19,1.2-.7,0-.34-.19-.57-.72-.63l-1.06-.1c-1.23-.12-2-.65-2-1.9s1.23-2.16,2.61-2.16a3.6,3.6,0,0,1,2.59.8l-1,1.05a2.36,2.36,0,0,0-1.57-.45c-.68,0-1,.31-1,.65s.11.53.71.58l1.06.11c1.34.13,2,.84,2,2C168,106.52,166.67,107.23,165.07,107.23Z"/>
        <path class="cls-4" d="M174,106.62a2.35,2.35,0,0,1-1.65.61,2,2,0,0,1-1.64-.67v3.08H169v-9.26h1.64V101a2.06,2.06,0,0,1,1.69-.72,2.36,2.36,0,0,1,1.65.62,4,4,0,0,1,.69,2.84A4.06,4.06,0,0,1,174,106.62Zm-2.15-4.79c-1,0-1.14.83-1.14,1.93s.13,1.95,1.14,1.95,1.15-.84,1.15-1.95S172.89,101.83,171.87,101.83Z"/>
        <path class="cls-4" d="M180.67,106.4a3.06,3.06,0,0,1-4.19,0,4.88,4.88,0,0,1,0-5.26,3,3,0,0,1,4.19,0,4.88,4.88,0,0,1,0,5.26Zm-1.31-4.28a1.07,1.07,0,0,0-.79-.29,1,1,0,0,0-.78.29,3.66,3.66,0,0,0,0,3.29,1,1,0,0,0,.78.3,1,1,0,0,0,.79-.3,3.66,3.66,0,0,0,0-3.29Z"/>
        <path class="cls-4" d="M186.41,102.23a1.13,1.13,0,0,0-2,.84v4.09h-1.69v-6.78h1.65V101a2.27,2.27,0,0,1,1.7-.73,2,2,0,0,1,1.6.64Z"/>
        <path class="cls-4" d="M190.44,107.16a1.84,1.84,0,0,1-2-1.94v-3.35h-.71v-1.29h.71v-2h1.69v2h1.2v1.29h-1.2v3.25a.54.54,0,0,0,.59.61h.61v1.43Z"/>
        <path class="cls-4" d="M199.64,98.34v8.82h-2.09V98.34h-2.79V96.48h7.67v1.86Z"/>
        <path class="cls-4" d="M204.13,103.86a1.62,1.62,0,0,0,1.71,1.74,2.14,2.14,0,0,0,1.77-.74L208.8,106a3.74,3.74,0,0,1-3,1.23c-1.85,0-3.62-.84-3.62-4,0-2.55,1.38-4,3.41-4s3.4,1.59,3.4,3.74v.87Zm2.79-2.18a1.36,1.36,0,0,0-1.3-.81,1.37,1.37,0,0,0-1.31.81,2.29,2.29,0,0,0-.18.84h3A2.11,2.11,0,0,0,206.92,101.68Z"/>
        <path class="cls-4" d="M213.55,107.25c-1.56,0-3.49-.84-3.49-4s1.93-4,3.49-4a3.33,3.33,0,0,1,2.58,1l-1.32,1.32a1.58,1.58,0,0,0-1.26-.61,1.35,1.35,0,0,0-1.11.51,2.63,2.63,0,0,0-.43,1.72,2.68,2.68,0,0,0,.43,1.74,1.35,1.35,0,0,0,1.11.51,1.58,1.58,0,0,0,1.26-.61l1.32,1.3A3.34,3.34,0,0,1,213.55,107.25Z"/>
        <path class="cls-4" d="M221.76,107.16v-4.77a1.27,1.27,0,1,0-2.54,0v4.77h-1.95V96.48h1.95v3.58a2.6,2.6,0,0,1,1.88-.81,2.54,2.54,0,0,1,2.61,2.85v5.06Z"/>
        <path class="cls-4" d="M230,107.16v-4.73a1.31,1.31,0,1,0-2.6,0v4.73h-1.95V99.34h1.91v.72a2.67,2.67,0,0,1,1.95-.81,2.54,2.54,0,0,1,1.84.69,2.91,2.91,0,0,1,.8,2.22v5Z"/>
        <path class="cls-4" d="M239.05,106.29a3.23,3.23,0,0,1-2.43,1,3.2,3.2,0,0,1-2.41-1,5.64,5.64,0,0,1,0-6.08,3.2,3.2,0,0,1,2.41-1,3.23,3.23,0,0,1,2.43,1,5.64,5.64,0,0,1,0,6.08Zm-1.51-4.94a1.27,1.27,0,0,0-.92-.34,1.22,1.22,0,0,0-.9.34,2.67,2.67,0,0,0-.45,1.89,2.73,2.73,0,0,0,.45,1.91,1.22,1.22,0,0,0,.9.34,1.27,1.27,0,0,0,.92-.34,2.73,2.73,0,0,0,.45-1.91A2.67,2.67,0,0,0,237.54,101.35Z"/>
        <path class="cls-4" d="M247.17,106.54a2.72,2.72,0,0,1-1.91.71,2.32,2.32,0,0,1-1.89-.78V110h-2V99.34h1.89v.74a2.39,2.39,0,0,1,1.95-.83,2.72,2.72,0,0,1,1.91.71c.78.78.79,2.11.79,3.28S248,105.76,247.17,106.54ZM244.69,101c-1.17,0-1.32,1-1.32,2.23s.15,2.25,1.32,2.25,1.32-1,1.32-2.25S245.86,101,244.69,101Z"/>
        <path class="cls-4" d="M254.85,106.29a3.25,3.25,0,0,1-2.43,1,3.21,3.21,0,0,1-2.42-1,5.69,5.69,0,0,1,0-6.08,3.21,3.21,0,0,1,2.42-1,3.25,3.25,0,0,1,2.43,1,5.69,5.69,0,0,1,0,6.08Zm-1.52-4.94a1.23,1.23,0,0,0-.91-.34,1.21,1.21,0,0,0-.9.34,2.62,2.62,0,0,0-.45,1.89,2.68,2.68,0,0,0,.45,1.91,1.21,1.21,0,0,0,.9.34,1.23,1.23,0,0,0,.91-.34,2.68,2.68,0,0,0,.45-1.91A2.62,2.62,0,0,0,253.33,101.35Z"/>
        <path class="cls-4" d="M259.42,107.16a2.13,2.13,0,0,1-2.28-2.24V96.48h1.95v8.32c0,.47.2.71.69.71h.75v1.65Z"/>
        <path class="cls-4" d="M262.87,103.86a1.62,1.62,0,0,0,1.71,1.74,2.14,2.14,0,0,0,1.77-.74l1.18,1.16a3.71,3.71,0,0,1-3,1.23c-1.85,0-3.62-.84-3.62-4,0-2.55,1.38-4,3.41-4s3.4,1.59,3.4,3.74v.87Zm2.79-2.18a1.36,1.36,0,0,0-1.3-.81,1.37,1.37,0,0,0-1.31.81,2.11,2.11,0,0,0-.18.84h3A2.29,2.29,0,0,0,265.66,101.68Z"/>
      </g>
    </g>
  </g>
</svg>
