<svg xmlns="http://www.w3.org/2000/svg" viewBox="0 0 257.85 113.97">
  <defs>
    <style>
      .cls-1 {
        fill: #fff;
      }

      .cls-2 {
        fill: #50ae2f;
      }

      .cls-3 {
        fill: #aeb5be;
      }

      .cls-4 {
        fill: #b1cc3a;
      }
    </style>
  </defs>
  <title>banner-logo</title>
  <filter id="dropshadow" height="130%">
    <feGaussianBlur in="SourceAlpha" stdDeviation="3"/> <!-- stdDeviation is how much to blur -->
    <feOffset dx="2" dy="2" result="offsetblur"/> <!-- how much to offset -->
    <feComponentTransfer>
      <feFuncA type="linear" slope="0.2"/> <!-- slope is the opacity of the shadow -->
    </feComponentTransfer>
    <feMerge>
      <feMergeNode/> <!-- this contains the offset blurred image -->
      <feMergeNode in="SourceGraphic"/> <!-- this contains the element that the filter is applied to -->
    </feMerge>
  </filter>

  <g id="Calque_2" data-name="Calque 2">
    <g id="shadow">
      <path class="cls-1" d="M52.52,105A52.52,52.52,0,1,0,0,52.52,52.53,52.53,0,0,0,52.52,105" style="filter:url(#dropshadow)"/>
    </g>
    <g id="green-circle">
      <path class="cls-2" d="M4.36,52.52A48.16,48.16,0,1,0,52.52,4.36,48.16,48.16,0,0,0,4.36,52.52"/>
    </g>
    <g id="swoosh">
      <path class="cls-1" d="M84.49,62.06s-43.33-1.47-70.3,19.62a48.31,48.31,0,0,0,24.58,17C38.11,97.05,26.24,65.69,84.49,62.06Z"/>
    </g>
    <g id="name">
      <polygon class="cls-1" points="16.8 47.52 16.8 58.8 14.21 58.8 14.21 47.52 10.77 47.52 10.77 45.29 20.24 45.29 20.24 47.52 16.8 47.52"/>
      <path class="cls-1" d="M22.73,48.62v1.06a2.37,2.37,0,0,1,1-1,3,3,0,0,1,1.41-.31,4.18,4.18,0,0,1,.82.07v2.28a4,4,0,0,0-1.22-.22,1.87,1.87,0,0,0-1.41.56,2.19,2.19,0,0,0-.54,1.59V58.8H20.36V48.62Z"/>
      <path class="cls-1" d="M39.35,48.62v.92a2.86,2.86,0,0,1,1.08-.77,3.39,3.39,0,0,1,1.32-.27,3.06,3.06,0,0,1,2.43,1A3.92,3.92,0,0,1,45,52.17V58.8H42.62V52.46a1.91,1.91,0,0,0-.43-1.33A1.49,1.49,0,0,0,41,50.66a1.55,1.55,0,0,0-1.17.47,1.83,1.83,0,0,0-.45,1.33V58.8H37V48.62Z"/>
      <path class="cls-1" d="M46.71,55.79v-.08H49v0a1,1,0,0,0,.46.89,2.05,2.05,0,0,0,1.2.32,2.32,2.32,0,0,0,1.25-.28.94.94,0,0,0,.45-.85A.86.86,0,0,0,52,55.1a2.5,2.5,0,0,0-1.11-.37l-1.08-.18a4.2,4.2,0,0,1-2.25-.94,2.51,2.51,0,0,1-.73-2,2.78,2.78,0,0,1,1.07-2.3,4.23,4.23,0,0,1,2.73-.86,4.87,4.87,0,0,1,2,.39,3.13,3.13,0,0,1,1.35,1,2.57,2.57,0,0,1,.48,1.52v.12H52.23v-.06a.94.94,0,0,0-.42-.82,2,2,0,0,0-1.17-.3,1.86,1.86,0,0,0-1.14.3.91.91,0,0,0-.39.78.86.86,0,0,0,.31.71,2,2,0,0,0,1,.35l1.19.17a4.14,4.14,0,0,1,2.29.94,2.63,2.63,0,0,1,.76,2,2.83,2.83,0,0,1-1.13,2.42,4.79,4.79,0,0,1-3,.85,4.33,4.33,0,0,1-2.8-.85,2.79,2.79,0,0,1-1-2.28"/>
      <path class="cls-1" d="M66.14,55.71V45.29h2.43V55.55a1.36,1.36,0,0,0,.23.89.89.89,0,0,0,.73.27h.82V58.8H69.24A3.16,3.16,0,0,1,67,58a3.08,3.08,0,0,1-.81-2.29"/>
      <path class="cls-1" d="M71.76,55.71V45.29h2.43V55.55a1.36,1.36,0,0,0,.22.89.92.92,0,0,0,.74.27H76V58.8H74.85a3.12,3.12,0,0,1-2.28-.8,3.08,3.08,0,0,1-.81-2.29"/>
      <path class="cls-1" d="M79.61,54.71a2.2,2.2,0,0,0,.51,1.63,2,2,0,0,0,1.45.48,1.87,1.87,0,0,0,1.13-.3,1.05,1.05,0,0,0,.45-.85l0-.06h2.31v.1A2.89,2.89,0,0,1,84.41,58a4.5,4.5,0,0,1-2.94.88,4.24,4.24,0,0,1-3.11-1.13,4.64,4.64,0,0,1-1.16-3.47V53.09a4.72,4.72,0,0,1,1.12-3.44,4.1,4.1,0,0,1,3.07-1.15,4,4,0,0,1,3,1.16,4.73,4.73,0,0,1,1.13,3.43v1.35h-6Zm0-2v.06h3.52v-.25c0-1.29-.58-1.94-1.74-1.94a1.72,1.72,0,0,0-1.32.49,2.33,2.33,0,0,0-.46,1.64"/>
      <path class="cls-1" d="M91,60.75l.11-.15a3.45,3.45,0,0,0,.58-1.3l3.73-10.68H92.92l-2,6.4-2-6.4H86.32l3.34,9.59c.12,1.13-.18,3.25-3.84,3.93,0,0,2.81.49,4.58-.82h0a2.32,2.32,0,0,0,.43-.4Z"/>
      <path class="cls-1" d="M63,49.41a4.4,4.4,0,0,0-3-.91,4.15,4.15,0,0,0-2.74.84,2.76,2.76,0,0,0-1,2.26v.08h2.25v-.06a1.13,1.13,0,0,1,.4-.91A1.62,1.62,0,0,1,60,50.36,1.44,1.44,0,0,1,61.62,52v.8H59.47a3.82,3.82,0,0,0-2.57.8A2.69,2.69,0,0,0,56,55.75a3.09,3.09,0,0,0,.87,2.33,3.31,3.31,0,0,0,2.42.84,3.54,3.54,0,0,0,1.36-.23,3.44,3.44,0,0,0,1-.77v.88H64V52.11A3.42,3.42,0,0,0,63,49.41Zm-1.37,5.77a1.87,1.87,0,0,1-.42,1.34,1.82,1.82,0,0,1-1.38.44c-1,0-1.49-.42-1.49-1.27s.51-1.23,1.53-1.23h1.76Z"/>
      <path class="cls-1" d="M33.83,49.41a4.44,4.44,0,0,0-3-.91,4.17,4.17,0,0,0-2.74.84,2.76,2.76,0,0,0-1,2.26v.08h2.25v-.06a1.16,1.16,0,0,1,.4-.91,1.62,1.62,0,0,1,1.09-.35A1.44,1.44,0,0,1,32.46,52v.8H30.3a3.79,3.79,0,0,0-2.56.8,2.69,2.69,0,0,0-.92,2.16,3.13,3.13,0,0,0,.86,2.33,3.32,3.32,0,0,0,2.43.84,3.54,3.54,0,0,0,1.36-.23,3.44,3.44,0,0,0,1.05-.77v.88h2.35V52.11A3.42,3.42,0,0,0,33.83,49.41Zm-1.37,5.77A1.87,1.87,0,0,1,32,56.52a1.83,1.83,0,0,1-1.38.44c-1,0-1.49-.42-1.49-1.27s.51-1.23,1.52-1.23h1.77Z"/>
    </g>
    <g id="baseline">
      <g>
        <path class="cls-3" d="M110.52,78.54v8.93h-2V78.54h-2.73V76.77h7.51v1.77Z"/>
        <path class="cls-3" d="M114.92,84.23a1.73,1.73,0,0,0,.4,1.29,1.59,1.59,0,0,0,1.15.39,1.5,1.5,0,0,0,.9-.24.9.9,0,0,0,.35-.68l0,0h1.83V85a2.3,2.3,0,0,1-.85,1.85,3.61,3.61,0,0,1-2.33.69,3.37,3.37,0,0,1-2.47-.89,3.68,3.68,0,0,1-.91-2.75V83a3.78,3.78,0,0,1,.88-2.73,3.26,3.26,0,0,1,2.44-.9,3.22,3.22,0,0,1,2.41.91,3.77,3.77,0,0,1,.89,2.72V84h-4.71Zm0-1.58v0h2.79v-.2c0-1-.46-1.54-1.38-1.54a1.36,1.36,0,0,0-1,.39A1.89,1.89,0,0,0,114.92,82.65Z"/>
        <path class="cls-3" d="M121,84.19V82.68a3.44,3.44,0,0,1,5.6-2.6,2.69,2.69,0,0,1,.84,2.11v.15h-1.83v-.09a1.19,1.19,0,0,0-.35-.9,1.33,1.33,0,0,0-1-.33c-.93,0-1.39.57-1.39,1.69v1.46a1.89,1.89,0,0,0,.36,1.3,1.59,1.59,0,0,0,2,.08,1.12,1.12,0,0,0,.35-.87v-.09h1.83v.11a2.7,2.7,0,0,1-.84,2.1,3.28,3.28,0,0,1-5.6-2.61Z"/>
        <path class="cls-3" d="M130.91,76.77v3.35a2.24,2.24,0,0,1,.84-.6,2.51,2.51,0,0,1,1-.2,2.4,2.4,0,0,1,1.92.77,3.06,3.06,0,0,1,.68,2.13v5.25h-1.92v-5a1.47,1.47,0,0,0-.34-1.06,1.17,1.17,0,0,0-.91-.37,1.28,1.28,0,0,0-.93.37,1.46,1.46,0,0,0-.36,1.06v5H129V76.77Z"/>
        <path class="cls-3" d="M138.92,79.41v.73a2.37,2.37,0,0,1,.86-.61,2.73,2.73,0,0,1,1.05-.21,2.43,2.43,0,0,1,1.92.77,3.1,3.1,0,0,1,.68,2.13v5.25h-1.92v-5a1.5,1.5,0,0,0-.34-1.06,1.2,1.2,0,0,0-.91-.37,1.28,1.28,0,0,0-.93.37,1.46,1.46,0,0,0-.36,1.06v5h-1.92V79.41Z"/>
        <path class="cls-3" d="M145,84.19V82.68a3,3,0,0,1,3.27-3.36,3.3,3.3,0,0,1,2.37.82,3.34,3.34,0,0,1,.87,2.54v1.51a3.35,3.35,0,0,1-.87,2.55,3.3,3.3,0,0,1-2.37.82A3,3,0,0,1,145,84.19Zm4.6-1.48c0-1.12-.45-1.69-1.33-1.69s-1.37.57-1.37,1.69v1.46c0,1.13.46,1.69,1.37,1.69s1.33-.56,1.33-1.69Z"/>
        <path class="cls-3" d="M154.88,79.41v.82a2.24,2.24,0,0,1,1.85-.91,2.55,2.55,0,0,1,2,.82,3.6,3.6,0,0,1,.76,2.49v1.6a3.66,3.66,0,0,1-.76,2.51,2.48,2.48,0,0,1-1.91.82,2.26,2.26,0,0,1-1.86-.82v3.15H153V79.41Zm2.66,3.3a1.93,1.93,0,0,0-.35-1.29,1.31,1.31,0,0,0-1.92,0,1.9,1.9,0,0,0-.35,1.25v1.46a1.93,1.93,0,0,0,.36,1.26,1.24,1.24,0,0,0,1,.43c.83,0,1.25-.56,1.25-1.69Z"/>
        <path class="cls-3" d="M160.85,84.19V82.68a3.42,3.42,0,0,1,5.64-2.54,3.34,3.34,0,0,1,.87,2.54v1.51a3.35,3.35,0,0,1-.87,2.55,3.3,3.3,0,0,1-2.37.82,3,3,0,0,1-3.27-3.37Zm4-8,1.78,2.34h-1.5l-1-1.21-1,1.21h-1.52l1.79-2.34Zm.63,6.52c0-1.12-.44-1.69-1.33-1.69s-1.36.57-1.36,1.69v1.46c0,1.13.45,1.69,1.36,1.69s1.33-.56,1.33-1.69Z"/>
        <path class="cls-3" d="M168.89,85V76.77h1.93V84.9a1.07,1.07,0,0,0,.17.7.73.73,0,0,0,.58.21h.66v1.66h-.89A2.23,2.23,0,0,1,168.89,85Z"/>
        <path class="cls-3" d="M175.11,84.23a1.73,1.73,0,0,0,.4,1.29,1.59,1.59,0,0,0,1.15.39,1.5,1.5,0,0,0,.9-.24.9.9,0,0,0,.35-.68l0,0h1.83V85a2.3,2.3,0,0,1-.85,1.85,3.61,3.61,0,0,1-2.33.69,3.35,3.35,0,0,1-2.46-.89,3.68,3.68,0,0,1-.92-2.75V83a3.83,3.83,0,0,1,.88-2.73,3.26,3.26,0,0,1,2.44-.9,3.22,3.22,0,0,1,2.41.91,3.77,3.77,0,0,1,.89,2.72V84h-4.71Zm0-1.58v0h2.79v-.2c0-1-.46-1.54-1.38-1.54a1.36,1.36,0,0,0-1.05.39A1.89,1.89,0,0,0,175.11,82.65Z"/>
      </g>
      <g>
        <path class="cls-3" d="M183.94,84.69V83.33a3.13,3.13,0,0,1,.63-2.14,2.11,2.11,0,0,1,1.64-.71,1.88,1.88,0,0,1,1.61.78v-3h1.64v9.17h-1.61v-.64a2,2,0,0,1-1.62.72,2.12,2.12,0,0,1-1.64-.71A3.11,3.11,0,0,1,183.94,84.69Zm3.88,0V83.39a1.64,1.64,0,0,0-.3-1.07,1,1,0,0,0-.83-.38c-.73,0-1.1.49-1.1,1.45v1.25c0,1,.35,1.45,1.06,1.45a1.07,1.07,0,0,0,.87-.37A1.69,1.69,0,0,0,187.82,84.64Z"/>
        <path class="cls-3" d="M192.4,84.69a1.49,1.49,0,0,0,.35,1.11,1.37,1.37,0,0,0,1,.33,1.24,1.24,0,0,0,.77-.21.73.73,0,0,0,.31-.57v0h1.57v.06a1.93,1.93,0,0,1-.73,1.58,3,3,0,0,1-2,.6,2.92,2.92,0,0,1-2.12-.76,3.18,3.18,0,0,1-.78-2.36v-.84a3.19,3.19,0,0,1,.76-2.33,3.15,3.15,0,0,1,4.15,0,3.22,3.22,0,0,1,.76,2.33v.92h-4Zm0-1.35v0h2.4v-.17c0-.88-.4-1.32-1.19-1.32a1.15,1.15,0,0,0-.89.33A1.61,1.61,0,0,0,192.4,83.34Z"/>
        <path class="cls-3" d="M197.52,85.42v0h1.54v0a.67.67,0,0,0,.31.6,1.37,1.37,0,0,0,.82.22A1.6,1.6,0,0,0,201,86a.64.64,0,0,0,.3-.58.59.59,0,0,0-.22-.49,1.64,1.64,0,0,0-.76-.25l-.73-.12A2.94,2.94,0,0,1,198.1,84a1.73,1.73,0,0,1-.49-1.33,1.89,1.89,0,0,1,.72-1.56,2.87,2.87,0,0,1,1.86-.58,3.4,3.4,0,0,1,1.36.26,2.15,2.15,0,0,1,.92.72,1.77,1.77,0,0,1,.32,1v.08h-1.53v0A.64.64,0,0,0,201,82a1.4,1.4,0,0,0-.79-.2,1.26,1.26,0,0,0-.77.2.62.62,0,0,0-.27.53.59.59,0,0,0,.21.48,1.43,1.43,0,0,0,.67.24l.81.12a2.74,2.74,0,0,1,1.55.64,1.75,1.75,0,0,1,.52,1.35,1.93,1.93,0,0,1-.77,1.64,3.22,3.22,0,0,1-2,.58,2.93,2.93,0,0,1-1.9-.58A1.9,1.9,0,0,1,197.52,85.42Z"/>
        <path class="cls-3" d="M208.45,80.56v.63a2,2,0,0,1,.74-.52,2.13,2.13,0,0,1,.89-.19,2.05,2.05,0,0,1,1.77.86,2.57,2.57,0,0,1,2-.86,2.23,2.23,0,0,1,1.72.67,2.57,2.57,0,0,1,.61,1.82v4.5H214.5v-4.3a1.25,1.25,0,0,0-.3-.91,1,1,0,0,0-.78-.32,1,1,0,0,0-.8.33,1.22,1.22,0,0,0-.3.86v4.34h-1.65v-4.3a1.25,1.25,0,0,0-.3-.91,1,1,0,0,0-.78-.32,1.08,1.08,0,0,0-.8.32,1.28,1.28,0,0,0-.3.91v4.3h-1.65V80.56Z"/>
        <path class="cls-3" d="M217.45,84.65V83.37a2.82,2.82,0,0,1,.76-2.18,2.87,2.87,0,0,1,2-.71,2.82,2.82,0,0,1,2,.71,2.85,2.85,0,0,1,.75,2.18v1.28a2.89,2.89,0,0,1-.75,2.2,2.81,2.81,0,0,1-2,.7,2.56,2.56,0,0,1-2.81-2.9Zm4-1.26c0-1-.38-1.45-1.14-1.45s-1.17.49-1.17,1.45v1.25c0,1,.39,1.45,1.17,1.45s1.14-.48,1.14-1.45Z"/>
        <path class="cls-3" d="M226,87.47h-1.61V78.3H226v3a1.81,1.81,0,0,1,1.54-.78,2.21,2.21,0,0,1,1.69.71,3.08,3.08,0,0,1,.65,2.14v1.36a3.11,3.11,0,0,1-.65,2.15,2.15,2.15,0,0,1-1.64.71,2,2,0,0,1-1.63-.72Zm2.27-4.08a1.67,1.67,0,0,0-.3-1.11,1,1,0,0,0-.8-.34,1,1,0,0,0-.84.38,1.59,1.59,0,0,0-.31,1.07v1.25a1.64,1.64,0,0,0,.32,1.08,1,1,0,0,0,.87.37c.7,0,1.06-.48,1.06-1.45Z"/>
        <path class="cls-3" d="M232.9,78.3v1.32h-1.67V78.3Zm0,2.26v6.91h-1.63V80.56Z"/>
        <path class="cls-3" d="M234.39,85.37V78.3H236v7a.94.94,0,0,0,.15.6.62.62,0,0,0,.5.18h.56v1.42h-.76a2.13,2.13,0,0,1-1.55-.54A2.09,2.09,0,0,1,234.39,85.37Z"/>
        <path class="cls-3" d="M239.92,78.3v1.32h-1.68V78.3Zm0,2.26v6.91h-1.63V80.56Z"/>
        <path class="cls-3" d="M243.54,85.37a.62.62,0,0,0,.68.71h.52v1.39H244a2.06,2.06,0,0,1-1.5-.54,1.92,1.92,0,0,1-.55-1.45V81.72h-1V80.56h1V79.21l1.63-.58v1.93h1.33v1.16h-1.33Z"/>
        <path class="cls-3" d="M247.34,84.69a1.49,1.49,0,0,0,.35,1.11,1.37,1.37,0,0,0,1,.33,1.24,1.24,0,0,0,.77-.21.73.73,0,0,0,.31-.57v0h1.57v.06A1.93,1.93,0,0,1,250.6,87a3,3,0,0,1-2,.6,2.9,2.9,0,0,1-2.12-.76,3.18,3.18,0,0,1-.78-2.36v-.84a3.19,3.19,0,0,1,.76-2.33,3.15,3.15,0,0,1,4.15,0,3.22,3.22,0,0,1,.76,2.33v.92h-4Zm3.22-6.8-1.84,1.77H247.3l1.44-1.77Zm-3.22,5.45v0h2.39v-.17c0-.88-.39-1.32-1.18-1.32a1.19,1.19,0,0,0-.9.33A1.67,1.67,0,0,0,247.34,83.34Z"/>
        <path class="cls-3" d="M252.46,85.42v0H254v0a.67.67,0,0,0,.31.6,1.37,1.37,0,0,0,.82.22A1.6,1.6,0,0,0,256,86a.64.64,0,0,0,.3-.58.59.59,0,0,0-.22-.49,1.64,1.64,0,0,0-.76-.25l-.73-.12A2.94,2.94,0,0,1,253,84a1.73,1.73,0,0,1-.49-1.33,1.89,1.89,0,0,1,.72-1.56,2.87,2.87,0,0,1,1.86-.58,3.44,3.44,0,0,1,1.36.26,2.15,2.15,0,0,1,.92.72,1.77,1.77,0,0,1,.32,1v.08H256.2v0a.64.64,0,0,0-.28-.56,1.4,1.4,0,0,0-.79-.2,1.26,1.26,0,0,0-.77.2.62.62,0,0,0-.27.53.59.59,0,0,0,.21.48,1.43,1.43,0,0,0,.67.24l.81.12a2.74,2.74,0,0,1,1.55.64,1.75,1.75,0,0,1,.52,1.35,1.93,1.93,0,0,1-.77,1.64,3.22,3.22,0,0,1-2,.58,2.93,2.93,0,0,1-1.9-.58A1.87,1.87,0,0,1,252.46,85.42Z"/>
      </g>
      <g>
        <path class="cls-3" d="M107.88,98.53a1.46,1.46,0,0,0,.35,1.1,1.33,1.33,0,0,0,1,.34,1.24,1.24,0,0,0,.77-.21.75.75,0,0,0,.31-.58v0h1.57v.07a2,2,0,0,1-.73,1.58,3.06,3.06,0,0,1-2,.6,2.9,2.9,0,0,1-2.11-.77,3.17,3.17,0,0,1-.78-2.36v-.83A3.21,3.21,0,0,1,107,95.1a2.8,2.8,0,0,1,2.09-.78,2.77,2.77,0,0,1,2.07.78,3.22,3.22,0,0,1,.76,2.33v.91h-4Zm0-1.36v0h2.39V97c0-.87-.39-1.31-1.18-1.31a1.19,1.19,0,0,0-.9.33A1.64,1.64,0,0,0,107.88,97.17Z"/>
        <path class="cls-3" d="M115.17,99.21a.61.61,0,0,0,.68.7h.52v1.4h-.78a2.06,2.06,0,0,1-1.5-.54,1.92,1.92,0,0,1-.55-1.45V95.55h-1V94.4h1V93l1.63-.57V94.4h1.33v1.15h-1.33Z"/>
        <path class="cls-3" d="M122.77,99.21a.61.61,0,0,0,.68.7H124v1.4h-.79a2.05,2.05,0,0,1-1.49-.54,1.92,1.92,0,0,1-.55-1.45V95.55h-1V94.4h1V93l1.63-.57V94.4h1.33v1.15h-1.33Z"/>
        <path class="cls-3" d="M126.8,94.4v.72a1.64,1.64,0,0,1,.67-.66,2.18,2.18,0,0,1,1-.21,3.15,3.15,0,0,1,.56,0v1.55a2.7,2.7,0,0,0-.82-.15,1.31,1.31,0,0,0-1,.38,1.5,1.5,0,0,0-.36,1.08v4.15h-1.65V94.4Z"/>
        <path class="cls-3" d="M135.05,96.76v4.55h-1.6v-.6a2,2,0,0,1-1.63.68,2.27,2.27,0,0,1-1.65-.57,2.11,2.11,0,0,1-.58-1.58,1.83,1.83,0,0,1,.62-1.47,2.59,2.59,0,0,1,1.74-.54h1.46v-.55a1,1,0,0,0-1.1-1.1,1.13,1.13,0,0,0-.74.23.78.78,0,0,0-.27.62v0h-1.53v0a1.89,1.89,0,0,1,.69-1.54,2.88,2.88,0,0,1,1.86-.56,2.93,2.93,0,0,1,2,.62A2.29,2.29,0,0,1,135.05,96.76Zm-1.64,2.09v-.49h-1.19c-.69,0-1,.28-1,.84s.34.86,1,.86a1,1,0,0,0,1.22-1.21Z"/>
        <path class="cls-3" d="M138.09,94.4V95a2,2,0,0,1,.74-.52,2.25,2.25,0,0,1,.89-.18,2.09,2.09,0,0,1,1.65.66A2.67,2.67,0,0,1,142,96.8v4.51h-1.65V97a1.25,1.25,0,0,0-.3-.9,1,1,0,0,0-.78-.32,1.07,1.07,0,0,0-.79.32,1.22,1.22,0,0,0-.31.9v4.31h-1.65V94.4Z"/>
        <path class="cls-3" d="M143.09,99.26v-.05h1.55v0a.7.7,0,0,0,.31.6,1.37,1.37,0,0,0,.82.22,1.6,1.6,0,0,0,.85-.19.64.64,0,0,0,.3-.58.57.57,0,0,0-.22-.49,1.75,1.75,0,0,0-.76-.26l-.73-.12a2.86,2.86,0,0,1-1.53-.63,1.74,1.74,0,0,1-.49-1.33,1.88,1.88,0,0,1,.72-1.56,2.85,2.85,0,0,1,1.86-.58,3.27,3.27,0,0,1,1.36.26,2.07,2.07,0,0,1,.91.72,1.68,1.68,0,0,1,.33,1v.08h-1.53v0a.63.63,0,0,0-.28-.55,1.32,1.32,0,0,0-.79-.2,1.25,1.25,0,0,0-.78.2.64.64,0,0,0-.26.53.6.6,0,0,0,.21.48,1.43,1.43,0,0,0,.67.24l.81.11a2.81,2.81,0,0,1,1.55.64,1.77,1.77,0,0,1,.52,1.36,1.94,1.94,0,0,1-.77,1.64,3.22,3.22,0,0,1-2,.58,2.91,2.91,0,0,1-1.9-.58A1.89,1.89,0,0,1,143.09,99.26Z"/>
        <path class="cls-3" d="M151.24,94.4v.7a1.91,1.91,0,0,1,1.58-.78,2.2,2.2,0,0,1,1.69.7,3.09,3.09,0,0,1,.65,2.14v1.37a3.12,3.12,0,0,1-.65,2.15,2.15,2.15,0,0,1-1.64.71,1.93,1.93,0,0,1-1.59-.71v2.7h-1.65v-9Zm2.27,2.83a1.66,1.66,0,0,0-.3-1.11,1.13,1.13,0,0,0-1.64,0,1.69,1.69,0,0,0-.31,1.08v1.25a1.59,1.59,0,0,0,.32,1.07,1.08,1.08,0,0,0,.87.38c.71,0,1.06-.49,1.06-1.45Z"/>
        <path class="cls-3" d="M156.35,98.49V97.2a2.8,2.8,0,1,1,5.58,0v1.29a2.54,2.54,0,0,1-2.77,2.9,2.9,2.9,0,0,1-2.06-.71A2.86,2.86,0,0,1,156.35,98.49Zm4-1.26c0-1-.38-1.45-1.14-1.45s-1.17.48-1.17,1.45v1.25c0,1,.39,1.45,1.17,1.45s1.14-.49,1.14-1.45Z"/>
        <path class="cls-3" d="M164.85,94.4v.72a1.66,1.66,0,0,1,.68-.66,2.12,2.12,0,0,1,1-.21,3.24,3.24,0,0,1,.56,0v1.55a2.76,2.76,0,0,0-.83-.15,1.27,1.27,0,0,0-1,.38,1.46,1.46,0,0,0-.37,1.08v4.15h-1.64V94.4Z"/>
        <path class="cls-3" d="M170.21,99.21c0,.47.22.7.67.7h.52v1.4h-.78a2.06,2.06,0,0,1-1.5-.54,2,2,0,0,1-.55-1.45V95.55h-1V94.4h1V93l1.64-.57V94.4h1.33v1.15h-1.33Z"/>
        <path class="cls-3" d="M172.44,99.26v-.05H174v0a.7.7,0,0,0,.31.6,1.37,1.37,0,0,0,.82.22,1.6,1.6,0,0,0,.85-.19.64.64,0,0,0,.3-.58.57.57,0,0,0-.22-.49,1.7,1.7,0,0,0-.76-.26l-.73-.12a2.86,2.86,0,0,1-1.53-.63,1.74,1.74,0,0,1-.49-1.33,1.88,1.88,0,0,1,.72-1.56,2.87,2.87,0,0,1,1.86-.58,3.24,3.24,0,0,1,1.36.26,2.15,2.15,0,0,1,.92.72,1.74,1.74,0,0,1,.32,1v.08h-1.52v0a.64.64,0,0,0-.29-.55,1.32,1.32,0,0,0-.79-.2,1.2,1.2,0,0,0-.77.2.62.62,0,0,0-.27.53.6.6,0,0,0,.21.48,1.47,1.47,0,0,0,.67.24l.81.11a2.81,2.81,0,0,1,1.55.64,1.77,1.77,0,0,1,.52,1.36,1.92,1.92,0,0,1-.77,1.64,3.21,3.21,0,0,1-2,.58,2.94,2.94,0,0,1-1.91-.58A1.91,1.91,0,0,1,172.44,99.26Z"/>
        <path class="cls-3" d="M181.71,98.53V97.16a3.14,3.14,0,0,1,.63-2.14,2.1,2.1,0,0,1,1.64-.7,1.88,1.88,0,0,1,1.61.78v-3h1.63v9.17h-1.6v-.64a2,2,0,0,1-1.63.72,2.13,2.13,0,0,1-1.64-.71A3.12,3.12,0,0,1,181.71,98.53Zm3.88,0V97.23a1.69,1.69,0,0,0-.3-1.08,1,1,0,0,0-.83-.37c-.74,0-1.1.48-1.1,1.45v1.25c0,1,.35,1.45,1.06,1.45a1,1,0,0,0,.86-.38A1.59,1.59,0,0,0,185.59,98.48Z"/>
        <path class="cls-3" d="M188.66,94.4h1.64v4a2.34,2.34,0,0,0,.22,1.11,1.21,1.21,0,0,0,1.74,0,2.21,2.21,0,0,0,.22-1.13v-4h1.65v4.12a3,3,0,0,1-.68,2.15,2.7,2.7,0,0,1-2.06.72c-1.82,0-2.73-1-2.73-2.87Z"/>
        <path class="cls-3" d="M197.17,94.4v.72a1.66,1.66,0,0,1,.68-.66,2.12,2.12,0,0,1,1-.21,3,3,0,0,1,.55,0v1.55a2.7,2.7,0,0,0-.82-.15,1.27,1.27,0,0,0-1,.38,1.46,1.46,0,0,0-.37,1.08v4.15h-1.65V94.4Z"/>
        <path class="cls-3" d="M205.42,96.76v4.55h-1.59v-.6a2.34,2.34,0,0,1-.71.52,2.32,2.32,0,0,1-.93.16,2.27,2.27,0,0,1-1.65-.57,2.11,2.11,0,0,1-.58-1.58,1.86,1.86,0,0,1,.62-1.47,2.6,2.6,0,0,1,1.75-.54h1.46v-.55a1,1,0,0,0-1.11-1.1,1.1,1.1,0,0,0-.73.23.76.76,0,0,0-.28.62v0h-1.52v0a1.89,1.89,0,0,1,.69-1.54,2.88,2.88,0,0,1,1.86-.56,2.94,2.94,0,0,1,2,.62A2.29,2.29,0,0,1,205.42,96.76Zm-1.63,2.09v-.49h-1.2c-.69,0-1,.28-1,.84s.34.86,1,.86a1.25,1.25,0,0,0,.94-.3A1.27,1.27,0,0,0,203.79,98.85Z"/>
        <path class="cls-3" d="M208.46,101.31h-1.61V92.14h1.65v3a1.82,1.82,0,0,1,1.54-.78,2.19,2.19,0,0,1,1.69.7,3,3,0,0,1,.65,2.14v1.37a3.07,3.07,0,0,1-.65,2.15,2.13,2.13,0,0,1-1.63.71,2,2,0,0,1-1.64-.72Zm2.27-4.08a1.72,1.72,0,0,0-.29-1.11,1,1,0,0,0-.81-.34,1,1,0,0,0-.84.37,1.69,1.69,0,0,0-.3,1.08v1.25a1.59,1.59,0,0,0,.31,1.07,1.08,1.08,0,0,0,.87.38c.71,0,1.06-.49,1.06-1.45Z"/>
        <path class="cls-3" d="M213.69,99.21V92.14h1.65v7a.89.89,0,0,0,.16.61.6.6,0,0,0,.49.18h.56v1.42h-.76a1.92,1.92,0,0,1-2.1-2.1Z"/>
        <path class="cls-3" d="M219,98.53a1.46,1.46,0,0,0,.35,1.1,1.33,1.33,0,0,0,1,.34,1.24,1.24,0,0,0,.77-.21.75.75,0,0,0,.31-.58v0H223v.07a1.94,1.94,0,0,1-.73,1.58,3.06,3.06,0,0,1-2,.6,2.9,2.9,0,0,1-2.11-.77,3.17,3.17,0,0,1-.78-2.36v-.83a3.21,3.21,0,0,1,.75-2.33,2.8,2.8,0,0,1,2.09-.78,2.77,2.77,0,0,1,2.07.78,3.22,3.22,0,0,1,.76,2.33v.91h-4Zm0-1.36v0h2.39V97c0-.87-.39-1.31-1.18-1.31a1.19,1.19,0,0,0-.9.33A1.64,1.64,0,0,0,219,97.17Z"/>
        <path class="cls-3" d="M224.13,99.26v-.05h1.55v0a.7.7,0,0,0,.31.6,1.37,1.37,0,0,0,.82.22,1.6,1.6,0,0,0,.85-.19.64.64,0,0,0,.3-.58.57.57,0,0,0-.22-.49,1.75,1.75,0,0,0-.76-.26l-.73-.12a2.86,2.86,0,0,1-1.53-.63,1.74,1.74,0,0,1-.49-1.33A1.88,1.88,0,0,1,225,94.9a2.87,2.87,0,0,1,1.86-.58,3.27,3.27,0,0,1,1.36.26,2.15,2.15,0,0,1,.92.72,1.74,1.74,0,0,1,.32,1v.08h-1.53v0a.63.63,0,0,0-.28-.55,1.32,1.32,0,0,0-.79-.2,1.2,1.2,0,0,0-.77.2.62.62,0,0,0-.27.53.6.6,0,0,0,.21.48,1.43,1.43,0,0,0,.67.24l.81.11a2.81,2.81,0,0,1,1.55.64,1.77,1.77,0,0,1,.52,1.36,1.94,1.94,0,0,1-.77,1.64,3.22,3.22,0,0,1-2,.58,2.91,2.91,0,0,1-1.9-.58A1.89,1.89,0,0,1,224.13,99.26Z"/>
      </g>
      <g>
        <path class="cls-4" d="M107.05,107l1.36,4.75,1.35-4.75h1.37l-2.2,6.87h-1.05L105.69,107Z"/>
        <path class="cls-4" d="M112.46,112.56l-.42,1.33h-1.37l2.44-6.87h1.07l2.45,6.87h-1.39l-.42-1.33Zm1.18-3.73-.83,2.64h1.67Z"/>
        <path class="cls-4" d="M118.56,107v5.74h3v1.13h-4.31V107Z"/>
        <path class="cls-4" d="M123.7,109.86h2.61V111H123.7v1.77h3.06v1.13H122.4V107h4.36v1.13H123.7Z"/>
        <path class="cls-4" d="M132.84,113.89h-1.31L129,109.6v4.29h-1.3V107H129l2.53,4.3V107h1.31Z"/>
        <path class="cls-4" d="M133.92,109.66c0-1.83.84-2.74,2.52-2.74a2.65,2.65,0,0,1,1.8.59,2.16,2.16,0,0,1,.66,1.69v.07h-1.3v-.06a1.17,1.17,0,0,0-.3-.84,1.2,1.2,0,0,0-.87-.31,1.06,1.06,0,0,0-.91.39,2.23,2.23,0,0,0-.28,1.28v1.48a2.07,2.07,0,0,0,.29,1.22,1.1,1.1,0,0,0,.92.38,1.15,1.15,0,0,0,.86-.3,1.14,1.14,0,0,0,.29-.82v-.08h1.28v.07a2.17,2.17,0,0,1-.65,1.7,2.63,2.63,0,0,1-1.81.59c-1.66,0-2.5-.91-2.5-2.74Z"/>
        <path class="cls-4" d="M141.25,107v6.87H140V107Z"/>
        <path class="cls-4" d="M143.79,109.86h2.62V111h-2.62v1.77h3.06v1.13h-4.36V107h4.36v1.13h-3.06Z"/>
        <path class="cls-4" d="M152.93,113.89h-1.3l-2.53-4.29v4.29h-1.31V107h1.31l2.53,4.3V107h1.3Z"/>
        <path class="cls-4" d="M159.25,113.89h-1.31l-2.53-4.29v4.29h-1.3V107h1.3l2.53,4.3V107h1.31Z"/>
        <path class="cls-4" d="M161.73,109.86h2.61V111h-2.61v1.77h3.06v1.13h-4.37V107h4.37v1.13h-3.06Z"/>
        <path class="cls-4" d="M165.38,111.8h1.24a1.18,1.18,0,0,0,.36.8,1.37,1.37,0,0,0,.87.24c.74,0,1.11-.31,1.11-.91a.81.81,0,0,0-.22-.62,1.27,1.27,0,0,0-.7-.3l-.64-.11c-1.25-.2-1.87-.84-1.87-1.91a1.91,1.91,0,0,1,.64-1.52,2.44,2.44,0,0,1,1.67-.55,2.29,2.29,0,0,1,1.61.54,2.18,2.18,0,0,1,.68,1.51h-1.26a1,1,0,0,0-.29-.73,1.35,1.35,0,0,0-1.52,0,.82.82,0,0,0-.26.64.71.71,0,0,0,.23.57,1.42,1.42,0,0,0,.72.3l.72.13a1.84,1.84,0,0,1,1.78,1.93,1.9,1.9,0,0,1-.67,1.58,2.68,2.68,0,0,1-1.79.55,2.49,2.49,0,0,1-1.72-.55A2.27,2.27,0,0,1,165.38,111.8Z"/>
      </g>
    </g>
  </g>
</svg>
