<svg xmlns="http://www.w3.org/2000/svg" viewBox="0 0 262.74 262.74">
  <defs>
    <style>
      .cls-1 {
        fill: #50ae2f;
      }

      .cls-2 {
        fill: #fff;
      }

      .cls-3 {
        fill: none;
        stroke: #c1c1c1;
        stroke-miterlimit: 10;
        stroke-width: 3.29px;
      }
    </style>
  </defs>
  <title>transalley-logo</title>
  <g id="Calque_2" data-name="Calque 2">
    <g id="green-circle">
      <path class="cls-1" d="M17.49,131.36A113.88,113.88,0,1,0,131.37,17.48h0A113.87,113.87,0,0,0,17.49,131.36"/>
    </g>
    <g id="swoosh">
      <path class="cls-2" d="M207,153.93s-102.51-3.48-166.26,46.39A114.06,114.06,0,0,0,99,240.55C97.57,237.16,68.79,162.53,207,153.93Z"/>
    </g>
    <g id="name">
      <polygon class="cls-2" points="39.65 143.51 39.65 115.52 32 115.52 32 109.24 55.72 109.24 54.47 115.52 47.09 115.52 47.09 143.51 39.65 143.51"/>
      <path class="cls-2" d="M54,143.51V127.59a20.77,20.77,0,0,0-.82-6.56l-.21-.55,6.36-1.7.2.36a7.44,7.44,0,0,1,.85,2.29,9.69,9.69,0,0,1,2.85-2.15,5.64,5.64,0,0,1,2.19-.41,5.14,5.14,0,0,1,2.46.54l.44.19-2,6.37-.56-.3a2.89,2.89,0,0,0-1.51-.39,4.17,4.17,0,0,0-3.16,1.61v16.62Z"/>
      <path class="cls-2" d="M89.06,140c-1.6-1.19-1.94-1.95-1.94-4.3v-.4l.13-7.74a11.46,11.46,0,0,0-.43-4.32c-1-2.82-3.8-4.36-7.93-4.36a16.15,16.15,0,0,0-6.5,1.39,22.43,22.43,0,0,0-3.82,1.93l-.43.27,3.11,5.25.46-.32c2.49-1.67,4.66-2.52,6.37-2.52s2.17.36,2.17,2.9v.38h-.82c-7.7,0-11.6,2.84-11.6,8.45,0,4.91,3.08,7.73,8.45,7.73A8.42,8.42,0,0,0,81.22,143a11,11,0,0,0,1-.8,7.27,7.27,0,0,0,3.15,2.43l.33.14,3.82-4.41Zm-9-2.37a3.75,3.75,0,0,1-2.63,1.26l-.22,0a2.2,2.2,0,0,1-1.91-2.47c0-2.08.68-3,4.83-3Z"/>
      <path class="cls-2" d="M103.81,143.51V128c0-2.73-.51-2.85-1.5-2.85a6.34,6.34,0,0,0-3.65,1.78v16.58H91.57V126.29a16.26,16.26,0,0,0-.78-5.23l-.19-.53,6.3-1.8.2.36a7.43,7.43,0,0,1,.84,2.2,19.5,19.5,0,0,1,2-1.23,9.85,9.85,0,0,1,4.4-1,6.23,6.23,0,0,1,6,3.68,9.89,9.89,0,0,1,.48,3.46v17.36Z"/>
      <path class="cls-2" d="M123.23,144.23a21.1,21.1,0,0,1-9.56-2.71l-.46-.24,2.64-5.39.5.3c1.91,1.17,5,2.53,7.37,2.53a2.31,2.31,0,0,0,2.53-2.06v0c0-1-.53-1.84-3.13-2.32l-2.7-.49a8.79,8.79,0,0,1-4.54-2.53,7.42,7.42,0,0,1-1.43-4.47c0-4.82,3.8-8,9.44-8a17.87,17.87,0,0,1,8.48,2.22l.47.23-2.45,5-.48-.24a11.62,11.62,0,0,0-5.43-1.61c-1.46,0-2.4.68-2.4,1.73,0,.65.19,1.24,2.48,1.83l2.8.72c2.8.71,3.91,1.56,4.87,2.79a6.68,6.68,0,0,1,1.38,4.24c0,5.11-4.18,8.54-10.39,8.54"/>
      <path class="cls-2" d="M167.25,144.05c-2.81,0-5.05-1.33-5.86-3.49-.48-1.27-.57-2.07-.57-5.36V118a60.53,60.53,0,0,0-.31-6.87v-.47l7.17-1.62.09.54a36.34,36.34,0,0,1,.32,6.08v18c0,3.94.06,4.38.34,4.87a.89.89,0,0,0,.76.37,1.65,1.65,0,0,0,.53-.07l.5-.15,1.32,4.57-.45.18a10.69,10.69,0,0,1-3.79.66"/>
      <path class="cls-2" d="M180.83,144.05c-2.81,0-5.05-1.33-5.86-3.49-.48-1.27-.57-2.07-.57-5.36V118a60.53,60.53,0,0,0-.31-6.87l-.05-.47L181.2,109l.1.54a35.31,35.31,0,0,1,.32,6.08v18c0,3.94.06,4.38.34,4.87a.84.84,0,0,0,.76.37,1.65,1.65,0,0,0,.53-.07l.5-.15,1.32,4.57-.45.18a10.69,10.69,0,0,1-3.79.66"/>
      <path class="cls-2" d="M206.68,132c0-5-1-8.19-3.21-10.45a9.94,9.94,0,0,0-7-2.59,9.55,9.55,0,0,0-7.64,3.28c-2.1,2.35-3,5.19-3,9.49,0,7.56,4.48,12.45,11.42,12.45h0a13.88,13.88,0,0,0,9-3.31l.37-.3L203.72,136l-.46.37a8.46,8.46,0,0,1-5.51,2.18c-2.7,0-4.23-1.71-4.33-4.71h13.26Zm-7.26-3.54-5.91,0c.07-1.64.61-4,3.07-4a2.41,2.41,0,0,1,2.21,1.11A5.15,5.15,0,0,1,199.42,128.42Z"/>
      <path class="cls-2" d="M223.51,119.41l-3.58,11.36c-.36,1.06-.73,2.42-.92,3.24-.07.32-.17.76-.26,1.22-.22-.86-.45-1.75-.62-2.33L214,119l-7.38.85,5.66,16.84c.15.46.75,2.23,1.34,4l1,2.84a24.23,24.23,0,0,1,.57,2.94,7.53,7.53,0,0,1-5.59,7.27,9.22,9.22,0,0,0,2.1.26,8.67,8.67,0,0,0,6.58-3c1.53-1.34,2.66-3.41,4.08-7.43L231,119.41Z"/>
      <path class="cls-2" d="M157.86,140c-1.66-1.19-2-1.95-2-4.3v-.4l.13-7.74a11.26,11.26,0,0,0-.43-4.32c-1-2.82-3.8-4.36-7.93-4.36a16.15,16.15,0,0,0-6.5,1.39,22.81,22.81,0,0,0-3.82,1.93l-.43.27,3.11,5.25.47-.32c2.48-1.67,4.65-2.52,6.36-2.52s2.18.36,2.18,2.9v.38h-.89c-7.69,0-11.6,2.84-11.6,8.45,0,4.91,3.08,7.73,8.45,7.73a7.89,7.89,0,0,0,5.94-2.17,7.29,7.29,0,0,0,3.15,2.44l.44.14,3.82-4.41Zm-9.08-2.37a3.75,3.75,0,0,1-2.63,1.26l-.22,0a2.2,2.2,0,0,1-1.91-2.47c0-2.08.68-3,4.84-3Z"/>
    </g>
    <g id="Calque_1-2" data-name="Calque 1">
      <circle class="cls-3" cx="131.37" cy="131.37" r="129.72"/>
    </g>
  </g>
</svg>
